<?xml version="1.0" standalone="no"?>
<!DOCTYPE svg PUBLIC "-//W3C//DTD SVG 20010904//EN"
 "http://www.w3.org/TR/2001/REC-SVG-20010904/DTD/svg10.dtd">
<svg version="1.0" xmlns="http://www.w3.org/2000/svg"
 width="500.000000pt" height="500.000000pt" viewBox="0 0 500.000000 500.000000"
 preserveAspectRatio="xMidYMid meet">
<metadata>
Created by potrace 1.16, written by Peter Selinger 2001-2019
</metadata>
<g transform="translate(0.000000,500.000000) scale(0.100000,-0.100000)"
fill="#000000" stroke="none">
<path d="M2220 4765 c-328 -41 -686 -169 -942 -337 -206 -135 -411 -317 -545
-483 -334 -415 -513 -918 -513 -1445 0 -504 157 -972 462 -1379 86 -114 265
-301 373 -388 178 -144 431 -290 636 -369 501 -190 1117 -190 1618 0 205 79
458 225 636 369 101 82 282 268 362 372 356 468 521 1048 463 1626 -44 434
-224 869 -503 1214 -87 108 -274 287 -388 373 -290 218 -560 338 -939 421
-192 41 -503 53 -720 26z m1965 -1039 c9 -13 18 -39 22 -59 5 -31 -6 -51 -113
-213 -64 -99 -178 -271 -251 -383 l-134 -204 73 64 c154 136 247 200 391 270
171 83 278 87 352 14 65 -66 70 -166 13 -322 -111 -306 -395 -684 -648 -862
-187 -131 -383 -183 -495 -132 -52 24 -74 50 -94 111 l-16 50 -104 -163 c-58
-89 -197 -308 -309 -487 -285 -453 -321 -507 -339 -514 -27 -11 -88 38 -113
89 -27 56 -24 129 10 194 17 35 306 510 398 656 25 39 23 38 -44 -22 -38 -34
-155 -149 -260 -255 -159 -161 -199 -207 -239 -278 -104 -181 -213 -318 -284
-355 -89 -46 -217 -20 -246 49 -32 76 -13 200 47 321 66 130 141 226 319 410
110 113 121 128 199 275 45 85 98 184 118 220 l35 65 -112 -108 c-191 -184
-317 -265 -428 -275 -83 -7 -119 4 -171 54 -46 45 -48 45 -72 29 -14 -9 -54
-30 -90 -48 -57 -28 -75 -32 -150 -32 -99 0 -148 20 -199 82 -47 57 -64 121
-59 217 3 44 9 90 13 101 5 11 -33 -24 -84 -78 -112 -117 -236 -213 -350 -270
-81 -40 -89 -42 -175 -42 -101 0 -129 10 -185 67 -19 18 -45 58 -60 88 -23 49
-26 67 -26 160 1 124 19 200 75 318 64 133 126 219 255 347 242 241 472 365
680 365 91 0 156 -22 194 -66 l30 -34 22 31 c39 55 130 75 204 45 67 -28 71
-89 10 -177 -150 -218 -331 -636 -343 -790 -6 -83 6 -109 52 -109 69 0 225
117 272 204 36 67 259 451 288 496 13 19 56 96 96 170 40 74 88 159 106 188
30 46 37 52 69 52 46 0 125 -72 125 -114 0 -44 -51 -155 -190 -411 -154 -284
-238 -452 -246 -494 -10 -47 21 -40 114 27 240 172 568 517 767 807 100 146
112 160 149 180 30 16 41 17 92 7 64 -13 104 -45 104 -86 0 -12 -57 -118 -126
-236 -322 -549 -622 -1085 -612 -1095 4 -5 327 277 542 473 111 101 160 153
193 206 671 1077 751 1197 807 1222 17 7 50 13 73 14 34 0 46 -5 58 -24z"/>
<path d="M1392 3029 c-268 -45 -590 -333 -754 -674 -47 -99 -58 -154 -33 -178
15 -16 19 -16 48 -1 85 43 409 319 498 425 26 30 106 135 179 234 73 99 137
186 143 193 11 14 -1 14 -81 1z"/>
<path d="M4210 2991 c-34 -11 -103 -54 -170 -109 -153 -123 -448 -421 -594
-600 -56 -69 -58 -73 -42 -91 27 -30 105 -45 157 -31 206 56 520 355 654 626
50 99 69 189 44 205 -16 10 -15 10 -49 0z"/>
</g>
</svg>
